<svg width="39" height="31" viewBox="0 0 39 31" fill="none" xmlns="http://www.w3.org/2000/svg">
<path d="M7.98411 2.00496L13.3068 1.44551L13.4467 2.7762L14.7774 2.63634L14.9173 3.96702L16.2479 3.82716L16.3878 5.15785L17.7185 5.01799L18.2779 10.3407L12.9552 10.9002L13.095 12.2309L14.4257 12.091L14.5656 13.4217L15.8963 13.2818L16.0361 14.6125L17.3668 14.4726L17.5067 15.8033L18.8374 15.6635L18.9772 16.9942L20.3079 16.8543L20.4478 18.185L21.7785 18.0451L21.9183 19.3758L23.249 19.2359L23.3889 20.5666L24.7195 20.4268L24.8594 21.7574L26.1901 21.6176L26.33 22.9483L27.6606 22.8084L27.8005 24.1391L29.1312 23.9992L29.271 25.3299L29.9439 27.439L26.7495 26.9403L26.6097 25.6096L25.279 25.7495L25.1391 24.4188L23.8084 24.5587L23.6686 23.228L22.3379 23.3679L22.198 22.0372L20.8674 22.177L20.7275 20.8463L19.3968 20.9862L19.257 19.6555L17.9263 19.7954L17.7864 18.4647L16.4557 18.6046L16.3159 17.2739L14.9852 17.4137L14.8453 16.083L13.5146 16.2229L13.3748 14.8922L12.0441 15.0321L11.9042 13.7014L10.5735 13.8413L11.133 19.164L5.81025 19.7234L5.67038 18.3928L4.3397 18.5326L4.19984 17.2019L2.86916 17.3418L2.7293 16.0111L1.39861 16.151L0.839169 10.8282L6.16191 10.2688L5.88219 7.60742L8.54355 7.3277" fill="white"/>
<path d="M30.9719 1.68225H25.6199V3.02027H24.2818V4.35828H22.9438V5.6963H21.6058V11.0484H26.9579V12.3864H25.6199V13.7244H24.2818V15.0624H22.9438V16.4004H21.6058V17.7384H20.2678V19.0764H18.9298V20.4145H17.5918V21.7525H16.2538V23.0905H14.9157V24.4285H13.5777V25.7665H12.2397V27.1045L11.5463 29.0744L13.5777 28.4426H14.9157V27.1045H16.2538V25.7665H17.5918V24.4285H18.9298V23.0905H20.2678V21.7525H21.6058V20.4145H22.9438V19.0764H24.2818V17.7384H25.6199V16.4004H26.9579V15.0624H28.2959V13.7244H29.6339V19.0764H34.986V17.7384H36.324V16.4004H37.662V15.0624H39V9.71034H33.6479V7.03431H30.9719" fill="white"/>
</svg>
