<svg width="564" height="564" viewBox="0 0 564 564" fill="none" xmlns="http://www.w3.org/2000/svg">
<path d="M458.69 106.032C439.333 86.2018 417.157 69.7104 393.593 58.1597C357.7 40.608 318.164 32.1029 278.616 31.584C163.075 30.1176 154.277 172.37 118.745 192.144C83.2126 211.917 18.8263 214.252 16.6042 293.359C15.2055 343.115 26.2937 394.281 57.4603 433.051C86.01 468.56 127.949 486.552 169.279 499.851C215.674 514.774 264.888 529.427 313.663 519.354C363.757 509.01 398.951 467.466 440.089 439.367C466.033 421.68 489.236 403.068 505.22 374.688C507.138 371.304 508.931 367.841 510.634 364.333C532.066 320.239 536.24 269.378 524.43 221.663C513.872 178.844 489.958 138.067 458.69 106.032Z" fill="url(#paint0_linear_14_335)"/>
<path d="M363.329 109.8C362.158 110.739 360.795 111.41 359.336 111.762C355.331 112.653 344.672 112.202 342.867 117.098C342.29 118.567 341.392 119.888 340.238 120.965C339.085 122.043 337.705 122.849 336.2 123.324C336.2 123.324 327.752 123.775 327.301 125.58C326.849 127.385 323.747 130.476 323.747 130.476H469.248C469.248 130.476 474.144 122.918 466.135 115.812C459.13 109.585 446.327 119.015 444.703 111.3" stroke="white" stroke-width="1.128" stroke-linecap="round" stroke-linejoin="round"/>
<path d="M443.383 99.9746C441.759 94.1203 438.341 86.2243 431.404 83.2915C419.83 78.396 410.051 85.0738 407.377 91.7402C404.704 98.4067 402.933 102.862 392.713 97.0757C382.494 91.289 373.537 91.7402 370.469 99.3317C369.584 101.529 368.477 103.631 367.164 105.603" stroke="white" stroke-width="1.128" stroke-linecap="round" stroke-linejoin="round"/>
<path d="M116.24 187.361H166.763C166.763 187.361 169.719 182.849 164.88 178.483C160.041 174.118 150.611 182.251 151.964 173.103C151.964 173.103 150.836 161.823 143.888 158.845C142.099 158.026 140.128 157.689 138.169 157.867C136.21 158.045 134.332 158.732 132.72 159.86" stroke="white" stroke-width="1.128" stroke-linecap="round" stroke-linejoin="round"/>
<path d="M129.359 163.955C127.746 167.993 126.663 170.723 120.482 167.181C114.3 163.639 108.908 163.955 107.025 168.535C105.141 173.114 102.716 175.528 100.257 176.058C97.7976 176.588 91.3792 176.329 90.2964 179.296C89.9447 180.184 89.4 180.983 88.7015 181.634C88.0031 182.286 87.1685 182.774 86.2581 183.063C86.2581 183.063 81.1483 183.323 80.8776 184.405C80.3394 185.51 79.61 186.511 78.7231 187.361H108.288" stroke="white" stroke-width="1.128" stroke-linecap="round" stroke-linejoin="round"/>
<path d="M369.138 187.361H392.995C392.995 187.361 395.951 182.849 391.111 178.483C386.272 174.118 376.853 182.251 378.196 173.103C378.196 173.103 377.124 161.823 370.119 158.845C363.114 155.867 357.215 159.973 355.591 163.955C353.966 167.937 352.906 170.723 346.713 167.181C340.521 163.639 335.14 163.955 333.268 168.534C331.395 173.114 328.959 175.528 326.5 176.058C324.041 176.588 317.622 176.329 316.551 179.295C316.198 180.183 315.652 180.981 314.954 181.632C314.256 182.284 313.422 182.772 312.512 183.063C312.512 183.063 307.402 183.322 307.132 184.405C306.594 185.51 305.864 186.51 304.977 187.361H361.174" stroke="white" stroke-width="1.128" stroke-linecap="round" stroke-linejoin="round"/>
<g opacity="0.1">
<path d="M529.1 359.031C525.287 359.167 517.402 355.873 517.402 355.873C517.402 355.873 521.147 351.361 521.429 351.079C524.599 348.112 532.484 344.255 536.736 346.567C537.431 346.981 538.03 347.537 538.497 348.198C538.963 348.858 539.285 349.61 539.443 350.403C539.6 351.196 539.589 352.014 539.41 352.803C539.232 353.591 538.889 354.334 538.406 354.982C536.432 357.847 532.337 358.907 529.1 359.031Z" fill="black"/>
<path d="M517.312 380.982C513.748 380.159 507.465 375.342 506.957 374.925C504.183 378.531 501.168 381.946 497.933 385.144C496.072 387.028 494.143 388.856 492.18 390.672C493.195 389.972 494.109 389.363 494.256 389.296C498.102 387.265 506.72 385.63 510.194 389.036C510.756 389.618 511.188 390.311 511.464 391.071C511.74 391.831 511.852 392.641 511.795 393.447C511.737 394.253 511.511 395.038 511.13 395.752C510.75 396.465 510.223 397.09 509.585 397.586C506.946 399.786 502.716 399.718 499.557 398.985C496.399 398.252 490.894 394.214 489.473 393.131C488.706 393.819 487.962 394.518 487.217 395.195C483.562 398.489 479.896 401.749 476.388 405.065C475.159 406.193 473.986 407.422 472.813 408.607C473.715 407.998 474.482 407.479 474.606 407.411C478.453 405.392 487.082 403.756 490.556 407.163C491.117 407.744 491.549 408.436 491.825 409.195C492.1 409.954 492.213 410.763 492.156 411.568C492.098 412.374 491.872 413.158 491.491 413.87C491.111 414.583 490.585 415.207 489.947 415.702C487.307 417.958 483.077 417.845 479.908 417.112C476.738 416.379 471.786 412.724 470.083 411.472C468.955 412.724 467.748 413.987 466.699 415.251C465.977 416.131 465.232 416.932 464.567 417.868L462.536 420.552C461.318 422.301 460.044 424.106 458.893 425.843C458.081 427.05 457.336 428.212 456.569 429.385C457.788 428.2 460.213 426.001 460.438 425.786C463.935 423.203 472.203 420.282 476.163 423.113C476.805 423.605 477.336 424.226 477.723 424.936C478.11 425.646 478.343 426.429 478.408 427.235C478.473 428.041 478.368 428.852 478.1 429.614C477.831 430.377 477.406 431.075 476.851 431.663C474.595 434.235 470.376 434.822 467.139 434.562C463.585 434.291 456.885 430.637 456.05 430.174C454.798 432.114 453.603 434.009 452.509 435.814C451.696 437.145 450.918 438.442 450.185 439.683L447.365 438.555C448.211 437.179 449.113 435.758 450.061 434.258C451.324 432.284 452.712 430.208 454.155 428.076C452.364 426.398 450.677 424.612 449.102 422.729C445.797 424.331 438.702 424.985 437.822 424.985C437.822 427.241 437.901 429.497 437.991 431.641C437.991 432.769 438.081 433.829 438.127 434.878L435.149 433.75C435.149 433.084 435.149 432.442 435.149 431.753C435.149 429.407 435.149 426.903 435.149 424.342C434.224 424.185 426.689 422.865 423.733 420.857C421.049 419.03 418.093 415.961 417.958 412.532C417.888 411.727 417.989 410.915 418.253 410.151C418.518 409.387 418.941 408.687 419.495 408.097C420.048 407.508 420.72 407.041 421.466 406.729C422.211 406.416 423.015 406.264 423.823 406.283C428.674 406.531 433.321 413.976 434.449 418.172C434.517 418.42 434.934 421.184 435.171 422.944C435.171 421.883 435.171 420.868 435.228 419.785C435.228 417.653 435.385 415.522 435.487 413.232C435.589 412.104 435.679 410.976 435.769 409.848C435.859 408.72 436.051 407.592 436.198 406.396C436.57 403.711 437.089 401.015 437.664 398.308C435.792 398.308 429.148 398.004 426.204 396.605C423.259 395.206 419.932 392.623 419.233 389.25C419.044 388.465 419.022 387.649 419.169 386.855C419.316 386.06 419.629 385.306 420.086 384.64C420.543 383.974 421.135 383.412 421.824 382.99C422.513 382.568 423.282 382.295 424.083 382.189C428.922 381.693 434.641 388.348 436.389 392.341C436.502 392.589 437.438 395.59 437.912 397.237C438.273 395.612 438.623 393.988 439.04 392.364C440.247 387.649 441.612 382.922 442.954 378.196C443.372 376.741 443.755 375.297 444.161 373.853C443.496 373.853 435.588 373.707 432.295 372.139C429.362 370.74 426.012 368.146 425.324 364.784C425.131 363.999 425.107 363.181 425.253 362.386C425.398 361.59 425.71 360.834 426.168 360.167C426.626 359.501 427.219 358.938 427.91 358.517C428.6 358.096 429.372 357.825 430.174 357.723C435.013 357.226 440.732 363.882 442.481 367.875C442.605 368.168 443.947 372.488 444.229 373.594C445.109 370.413 445.955 367.221 446.654 364.051C447.632 359.773 448.329 355.436 448.741 351.068C448.425 351.068 440.179 350.955 436.807 349.342C433.874 347.954 430.524 345.36 429.824 341.998C429.634 341.212 429.611 340.395 429.757 339.599C429.903 338.804 430.215 338.048 430.673 337.381C431.13 336.714 431.723 336.15 432.413 335.727C433.102 335.304 433.873 335.031 434.675 334.926C439.525 334.43 445.233 341.096 446.981 345.078C447.128 345.394 448.561 350.041 448.764 350.898C448.764 350.639 448.831 350.38 448.854 350.131C449.146 345.736 449.044 341.323 448.549 336.945C448.312 334.531 447.951 332.23 447.545 329.997C446.011 330.132 438.973 330.685 435.769 329.579C432.565 328.474 429.091 326.308 428.031 323.037C427.756 322.276 427.644 321.466 427.703 320.66C427.762 319.853 427.989 319.068 428.371 318.355C428.753 317.643 429.281 317.018 429.92 316.523C430.559 316.027 431.295 315.672 432.08 315.479C436.829 314.453 443.248 320.442 445.425 324.21C445.537 324.413 446.553 326.624 447.196 328.248C447.004 327.244 446.812 326.206 446.609 325.248C445.831 321.649 444.895 318.401 444.049 315.536C443.552 313.911 443.067 312.445 442.605 311.024C441.025 310.369 434.709 307.64 432.453 305.248C430.197 302.857 428.031 299.27 428.595 295.886C428.699 295.083 428.971 294.311 429.393 293.621C429.816 292.93 430.379 292.337 431.047 291.879C431.714 291.421 432.471 291.11 433.267 290.964C434.063 290.819 434.881 290.843 435.667 291.035C440.36 292.321 443.293 300.59 443.496 304.932C443.496 305.316 443.101 311.204 443.022 311.17H442.921C443.394 312.479 443.891 313.877 444.398 315.423C445.312 318.277 446.316 321.514 447.173 325.101C448.15 328.965 448.903 332.882 449.429 336.832C450.02 341.254 450.221 345.719 450.027 350.176C450.021 350.229 450.021 350.282 450.027 350.334C450.523 348.992 452.046 345.304 452.193 345.033C454.279 341.231 460.562 335.095 465.345 336.009C466.134 336.185 466.877 336.525 467.526 337.006C468.175 337.488 468.716 338.101 469.112 338.805C469.509 339.509 469.753 340.289 469.829 341.094C469.905 341.899 469.811 342.71 469.553 343.476C468.56 346.77 465.041 349.116 461.961 350.244C458.521 351.519 450.602 350.944 449.982 350.898C449.594 355.421 448.908 359.912 447.929 364.344C447.41 366.939 446.801 369.533 446.169 372.127C446.632 370.999 447.06 369.973 447.139 369.871C449.237 366.059 455.52 359.934 460.292 360.847C461.082 361.022 461.826 361.361 462.476 361.842C463.126 362.323 463.667 362.936 464.064 363.641C464.461 364.346 464.705 365.126 464.78 365.931C464.855 366.737 464.759 367.549 464.499 368.315C463.507 371.597 459.987 373.887 456.908 375.015C453.828 376.143 447.06 375.816 445.267 375.692C445.019 376.684 444.77 377.688 444.511 378.67C443.27 383.43 442.018 388.179 440.924 392.871C440.54 394.529 440.213 396.165 439.897 397.812C440.315 396.797 440.665 395.951 440.732 395.827C442.83 392.014 449.113 385.889 453.896 386.803C454.685 386.979 455.428 387.318 456.077 387.8C456.726 388.282 457.266 388.895 457.663 389.599C458.06 390.303 458.304 391.083 458.38 391.888C458.456 392.692 458.362 393.504 458.103 394.27C457.111 397.552 453.591 399.842 450.501 400.97C447.41 402.098 441.319 401.794 439.221 401.67C438.939 403.362 438.657 405.054 438.454 406.712C438.352 407.84 438.172 408.968 438.115 410.096L437.912 413.48C437.856 415.623 437.788 417.823 437.788 419.909C437.788 421.365 437.788 422.752 437.788 424.139C438.149 422.493 438.916 419.278 439.029 419.018C440.476 415.481 442.806 412.374 445.797 409.994C445.94 409.602 446.121 409.224 446.338 408.866C446.726 408.158 447.258 407.539 447.901 407.049C448.543 406.559 449.281 406.21 450.067 406.024C450.853 405.838 451.669 405.819 452.463 405.968C453.257 406.118 454.01 406.433 454.674 406.892C458.6 409.78 458.363 418.556 456.93 422.684C456.851 422.921 455.678 425.47 454.911 427.061C455.509 426.192 456.039 425.346 456.693 424.455C457.912 422.707 459.175 420.981 460.54 419.131L462.615 416.492C463.292 415.6 464.116 414.732 464.871 413.841C466.676 411.822 468.594 409.848 470.568 407.908C469.022 406.836 463.631 402.956 461.95 400.169C460.269 397.383 458.904 393.401 460.19 390.187C460.465 389.432 460.895 388.744 461.453 388.165C462.01 387.587 462.682 387.132 463.426 386.829C464.169 386.526 464.968 386.383 465.771 386.407C466.574 386.432 467.362 386.624 468.086 386.972C472.395 389.228 473.489 397.936 472.756 402.222C472.756 402.482 471.831 405.505 471.324 407.14C472.519 406.012 473.704 404.828 474.956 403.7C478.565 400.429 482.31 397.237 486.033 394.044L489.417 391.078C488.864 390.706 482.344 386.227 480.46 383.103C478.78 380.328 477.426 376.335 478.701 373.131C478.976 372.377 479.406 371.688 479.963 371.11C480.52 370.531 481.192 370.076 481.935 369.772C482.679 369.468 483.477 369.323 484.28 369.346C485.083 369.369 485.872 369.559 486.597 369.905C490.906 372.161 492 380.869 491.267 385.156C491.267 385.483 489.947 389.814 489.575 390.897C492.067 388.732 494.527 386.532 496.861 384.276C500.091 381.22 503.113 377.953 505.908 374.496C505.649 374.316 498.835 369.68 496.884 366.476C495.203 363.69 493.838 359.708 495.113 356.493C495.39 355.734 495.823 355.041 496.385 354.459C496.947 353.878 497.625 353.421 498.374 353.117C499.124 352.814 499.929 352.672 500.737 352.7C501.545 352.728 502.338 352.925 503.065 353.278C507.374 355.534 508.469 364.243 507.735 368.529C507.679 368.867 506.314 373.526 506.01 374.35C506.167 374.158 506.348 373.966 506.506 373.763C509.174 370.259 511.525 366.526 513.533 362.607C514.661 360.453 515.631 358.332 516.523 356.256C515.158 355.523 508.987 352.094 506.935 349.409C504.882 346.725 503.167 342.991 504.081 339.686C504.269 338.899 504.621 338.161 505.115 337.519C505.608 336.877 506.231 336.347 506.943 335.963C507.656 335.579 508.441 335.349 509.248 335.289C510.055 335.229 510.866 335.339 511.627 335.614C516.139 337.385 518.203 345.913 517.944 350.278C517.944 350.515 517.515 352.895 517.199 354.621C517.583 353.685 518 352.714 518.327 351.801C519.658 348.417 520.674 345.146 521.553 342.28C522.038 340.656 522.445 339.167 522.805 337.768C521.847 336.347 518.057 330.594 517.481 327.323C516.906 324.052 517.098 319.89 519.433 317.386C519.963 316.775 520.616 316.283 521.348 315.941C522.081 315.599 522.878 315.415 523.686 315.401C524.495 315.388 525.297 315.544 526.041 315.861C526.786 316.177 527.455 316.647 528.006 317.239C531.22 320.905 529.134 329.421 526.878 333.144C526.686 333.471 523.087 338.163 523.042 338.096L522.975 338.005C522.659 339.359 522.287 340.792 521.847 342.359C521.136 345.168 520.143 348.462 518.88 351.936C517.555 355.693 516.011 359.369 514.255 362.945C512.313 366.96 510.014 370.792 507.386 374.395C507.355 374.439 507.321 374.48 507.284 374.519C508.412 373.684 511.74 371.439 512.011 371.293C515.857 369.274 524.486 367.627 527.96 371.033C528.522 371.615 528.954 372.308 529.23 373.068C529.506 373.828 529.618 374.638 529.561 375.444C529.503 376.25 529.277 377.036 528.896 377.749C528.516 378.462 527.989 379.087 527.351 379.583C524.712 381.783 520.47 381.727 517.312 380.982Z" fill="black"/>
<path d="M447.974 329.229C447.884 329.229 448.594 323.375 448.685 323.003C449.7 318.784 454.144 311.215 458.995 310.843C459.802 310.804 460.608 310.935 461.362 311.228C462.115 311.521 462.798 311.969 463.366 312.544C463.934 313.119 464.375 313.807 464.66 314.563C464.945 315.32 465.067 316.127 465.018 316.934C464.939 320.318 462.108 323.51 459.468 325.406C456.366 327.628 447.974 329.218 447.974 329.229Z" fill="black"/>
</g>
<path d="M235.357 37.6301L249.457 171.625" stroke="#263238" stroke-width="1.128" stroke-linecap="round" stroke-linejoin="round"/>
<path d="M277.646 66.1008L267.133 68.5148L257.511 87.5441L242.272 83.19L241.843 87.3411L260.794 95.2032L267.573 85.7957V102.208L287.922 103.088L292.084 84.4872L299.518 91.0522V108.333H303.894L306.523 86.6755L294.927 67.8605L277.646 66.1008Z" fill="white" stroke="#263238" stroke-width="1.128" stroke-linecap="round" stroke-linejoin="round"/>
<path d="M267.573 85.7958L267.415 76.5349" stroke="#263238" stroke-width="1.128" stroke-linecap="round" stroke-linejoin="round"/>
<path d="M277.488 72.1921L280.342 77.5501C280.342 77.5501 288.238 80.0542 289.637 80.4039C291.035 80.7536 295.356 79.3323 298.92 78.6217C302.485 77.911 313.934 83.6187 313.934 83.6187L323.939 83.9797L318.581 77.5501L299.281 74.685L289.276 77.911L282.508 76.1175L283.951 73.3201L280.737 68.3118L277.488 72.1921Z" fill="#9921ED" stroke="#263238" stroke-width="1.128" stroke-linecap="round" stroke-linejoin="round"/>
<path d="M278.514 64.567C277.933 64.4571 277.332 64.58 276.84 64.9091C276.349 65.2383 276.006 65.7474 275.886 66.3267C275.458 68.515 275.018 73.9858 275.018 73.9858L280.263 72.4517L286.399 75.08C286.399 75.08 288.362 69.3836 287.268 67.4209C286.173 65.4581 281.143 62.8186 278.514 64.567Z" fill="white" stroke="#263238" stroke-width="1.128" stroke-linecap="round" stroke-linejoin="round"/>
<path d="M277.42 61.5098C277.42 61.5098 278.075 67.6348 278.3 69.8231C278.526 72.0114 279.834 75.2939 280.703 74.6397C281.571 73.9854 284.639 67.8717 284.639 67.8717L286.174 63.7206L277.42 61.5098Z" fill="white" stroke="#263238" stroke-width="1.128" stroke-linecap="round" stroke-linejoin="round"/>
<path d="M277.488 52.5648C277.488 52.5648 275.57 52.3956 275.57 55.5315C275.57 58.6673 276.958 58.8365 276.958 58.8365L277.488 52.5648Z" fill="white" stroke="#263238" stroke-width="1.128" stroke-linecap="round" stroke-linejoin="round"/>
<path d="M290.313 55.1819C290.562 55.1952 290.804 55.2628 291.024 55.3798C291.243 55.4969 291.435 55.6607 291.584 55.8596C291.733 56.0585 291.838 56.2877 291.889 56.5312C291.94 56.7746 291.938 57.0264 291.881 57.2687C291.532 59.1863 288.227 61.7807 288.227 61.7807L290.313 55.1819Z" fill="white" stroke="#263238" stroke-width="1.128" stroke-linecap="round" stroke-linejoin="round"/>
<path d="M283.985 46.2481C283.985 46.2481 280.489 45.3683 278.515 49.5306C276.541 53.6929 276.98 58.7238 277.387 61.5663C277.793 64.4089 280.455 65.7174 283.083 65.7174C285.711 65.7174 289.637 60.2579 290.516 56.0955C291.396 51.9332 290.765 46.2481 283.985 46.2481Z" fill="white" stroke="#263238" stroke-width="1.128" stroke-linecap="round" stroke-linejoin="round"/>
<path d="M238.042 80.7651L238.91 87.3301L242.847 87.77L242.193 80.3252L238.042 80.7651Z" fill="white" stroke="#263238" stroke-width="1.128" stroke-linecap="round" stroke-linejoin="round"/>
<path d="M242.272 80.6633L243.862 80.449L244.178 83.9458L242.588 84.1601L242.272 80.6633Z" fill="white" stroke="#263238" stroke-width="1.128" stroke-linecap="round" stroke-linejoin="round"/>
<path d="M299.518 108.333L297.126 112.078L297.747 115.834L299.834 115.631L303.387 114.379L303.894 108.333H299.518Z" fill="white" stroke="#263238" stroke-width="1.128" stroke-linecap="round" stroke-linejoin="round"/>
<path d="M267.573 102.208L266.027 108.954L248.904 131.491L260.387 163.853L263.309 163.222L260.805 132.326L274.792 117.504L276.461 118.553L276.507 135.089L292.535 162.184L295.874 161.338L288.362 135.247L288.779 107.487L287.922 103.088L267.573 102.208Z" fill="#263238" stroke="#263238" stroke-width="1.128" stroke-linecap="round" stroke-linejoin="round"/>
<path d="M260.387 163.854L257.883 167.396C257.883 167.396 253.913 169.279 253.292 170.317C252.672 171.355 256.676 171.152 256.676 171.152L261.267 170.734L266.073 167.61L263.354 163.222L260.387 163.854Z" fill="white" stroke="#263238" stroke-width="1.128" stroke-linecap="round" stroke-linejoin="round"/>
<path d="M235.955 42.4016C235.955 42.4016 233.857 47.1843 225.194 50.4668C216.531 53.7493 203.988 55.5428 200.705 62.4123C197.423 69.2819 197.423 68.6953 196.825 72.5643C196.505 74.826 195.456 76.9213 193.836 78.5315C193.836 78.5315 196.825 78.836 198.348 76.7492C199.87 74.6624 200.446 68.684 202.86 67.7816C205.273 66.8792 209.661 65.4241 209.661 65.4241C209.661 65.4241 205.488 69.0111 205.149 70.8047C204.811 72.5982 204.552 76.783 203.954 79.4677C203.693 80.9354 202.979 82.2846 201.912 83.3255C201.912 83.3255 205.792 83.3255 206.988 80.6408C208.184 77.9562 206.988 74.3691 210.868 71.6732C214.749 68.9773 218.934 70.1843 225.532 70.4775C232.131 70.7708 238.38 66.9018 238.38 66.9018L235.955 42.4016Z" fill="#9921ED" stroke="#263238" stroke-width="1.128" stroke-linecap="round" stroke-linejoin="round"/>
<path d="M292.536 162.184L289.659 171.738L296.799 171.456L295.874 161.338L292.536 162.184Z" fill="white" stroke="#263238" stroke-width="1.128" stroke-linecap="round" stroke-linejoin="round"/>
<path d="M281.594 54.6292C281.47 55.1932 281.075 55.588 280.691 55.509C280.308 55.43 280.105 54.8999 280.229 54.381C280.353 53.8621 280.748 53.4222 281.131 53.5012C281.515 53.5801 281.707 54.0652 281.594 54.6292Z" fill="#263238"/>
<path d="M286.817 55.8474C286.692 56.4114 286.298 56.8062 285.914 56.7273C285.531 56.6483 285.328 56.1181 285.452 55.5993C285.576 55.0804 285.971 54.6405 286.354 54.7194C286.738 54.7984 286.929 55.2721 286.817 55.8474Z" fill="#263238"/>
<path d="M283.342 55.3511L281.955 59.536H284.222" stroke="#263238" stroke-width="1.128" stroke-linecap="round" stroke-linejoin="round"/>
<path d="M280.218 60.7542C280.218 60.7542 281.436 62.841 284.572 61.6227" stroke="#263238" stroke-width="1.128" stroke-linecap="round" stroke-linejoin="round"/>
<path d="M280.037 51.6963C280.491 51.4514 281.015 51.3693 281.522 51.4637C282.029 51.5581 282.488 51.8233 282.824 52.2152" stroke="#263238" stroke-width="1.128" stroke-linecap="round" stroke-linejoin="round"/>
<path d="M285.44 52.9146C285.745 52.7473 286.082 52.6463 286.429 52.6182C286.776 52.5901 287.125 52.6356 287.453 52.7516C287.781 52.8677 288.08 53.0518 288.332 53.2917C288.584 53.5317 288.783 53.8222 288.915 54.1442" stroke="#263238" stroke-width="1.128" stroke-linecap="round" stroke-linejoin="round"/>
<path d="M276.732 51.1775L289.264 49.6321C289.264 49.6321 288.745 51.7189 289.445 52.2378C290.144 52.7567 290.313 55.2044 290.313 55.2044L289.794 57.9906L292.581 53.1176C292.581 53.1176 293.449 49.2824 292.75 48.0642C292.521 47.6965 292.216 47.3817 291.857 47.1405C291.497 46.8994 291.09 46.7375 290.663 46.6655C289.917 45.5369 288.866 44.6439 287.631 44.0906C286.397 43.5374 285.031 43.3467 283.692 43.5409C278.819 44.0598 276.732 46.4963 276.732 48.4139V51.1775Z" fill="#263238" stroke="#263238" stroke-width="1.128" stroke-linecap="round" stroke-linejoin="round"/>
<path d="M267.483 524.746L289.591 397.879L206.142 321.3L236.429 218.11L204.01 218.832L190.316 231.082L161.699 230.383L157.83 244.336L149.979 243.355L147.272 248.25L133.882 274.984L126.923 301.684L100.979 334.114L98.136 410.637L56.3098 471.008L43.1573 524.746H267.483Z" fill="#808080" fill-opacity="0.4" stroke="#263238" stroke-width="1.128" stroke-linecap="round" stroke-linejoin="round"/>
<path d="M455.78 524.746L428.087 464.025L473.207 494.087V445.977L446.688 414.563L450.613 379.222L410.344 302.642L408.336 276.134L394.597 263.365L324.074 268.464L319.044 243.704L273.924 218.178L246.852 283.726L221.911 294.758L239.486 318.852L236.643 337.949L242.52 367.435L144.384 389.036C144.384 389.036 143.403 436.164 143.403 440.089C143.403 444.015 123.764 466.597 123.764 466.597L122.851 524.746H455.78Z" fill="url(#paint1_linear_14_335)" stroke="#263238" stroke-width="1.128" stroke-linecap="round" stroke-linejoin="round"/>
<path d="M510.431 524.746L498.711 519.613L483.98 488.198L466.304 475.441L458.453 456.784L450.602 442.052L408.641 421.556L415.149 524.746H510.431Z" fill="#CCCCCC" stroke="#263238" stroke-width="1.128" stroke-linecap="round" stroke-linejoin="round"/>
<path d="M71.2332 524.622H123.697L124.644 494.087L119.737 476.422V429.294L107.961 427.332L98.136 438.127L82.4343 446.97L48.4025 524.746H71.2332V524.622Z" fill="#CCCCCC" stroke="#263238" stroke-width="1.128" stroke-linecap="round" stroke-linejoin="round"/>
<path d="M89.3827 473.5L90.5333 468.605" stroke="#263238" stroke-width="1.128" stroke-miterlimit="10"/>
<path d="M71.2332 524.746L78.2268 497.121L84.8256 492.925L88.6834 476.479" stroke="#263238" stroke-width="1.128" stroke-miterlimit="10"/>
<path d="M59.9081 525.039L71.0189 493.522" stroke="#263238" stroke-width="1.128" stroke-miterlimit="10"/>
<path d="M108.119 440.371L107.036 445.492" stroke="#263238" stroke-width="1.128" stroke-miterlimit="10"/>
<path d="M110.634 428.392L108.581 438.172" stroke="#263238" stroke-width="1.128" stroke-miterlimit="10"/>
<path d="M123.697 524.622L124.644 494.087L119.737 476.422V429.294L109.924 492.124L101.08 495.068L98.136 512.744L96.3087 524.622H123.697Z" fill="white" stroke="#263238" stroke-width="1.128" stroke-linecap="round" stroke-linejoin="round"/>
<path d="M291.712 489.8C297.293 489.044 302.751 487.558 307.944 485.378C312.09 483.687 315.739 480.97 318.547 477.482C318.874 477.042 319.179 476.58 319.472 476.117L311.723 441.149L296.438 427.817L293.889 416.379L279.225 404.941L274.149 422.741L265.881 434.178L265.249 476.129L273.145 491.221C279.359 491.169 285.563 490.694 291.712 489.8Z" fill="white" stroke="#263238" stroke-width="1.128" stroke-linecap="round" stroke-linejoin="round"/>
<path d="M291.712 489.8L290.155 476.738L294.746 464.364V457.032L293.821 445.571" stroke="#263238" stroke-width="1.128" stroke-miterlimit="10"/>
<path d="M301.018 450.094L303.455 463.901L308.034 464.815L307.121 476.275L308.948 482.242" stroke="#263238" stroke-width="1.128" stroke-miterlimit="10"/>
<path d="M299.326 440.529L300.138 445.132" stroke="#263238" stroke-width="1.128" stroke-miterlimit="10"/>
<path d="M284.2 411.19L287.866 448.775" stroke="#263238" stroke-width="1.128" stroke-miterlimit="10"/>
<path d="M239.418 488.864C249.964 490.467 260.617 491.259 271.284 491.233C273.427 491.233 275.525 491.176 277.59 491.097L277.364 479.298L273.551 474.222V437.991L279.913 431.629L279.27 404.952L271.645 418.939L261.493 427.828L255.131 446.259L244.979 458.34L242.43 471.053L230.36 481.205L225.544 486.337C230.093 487.307 234.718 488.149 239.418 488.864Z" fill="#CCCCCC" stroke="#263238" stroke-width="1.128" stroke-linecap="round" stroke-linejoin="round"/>
<path d="M423.113 524.746L476.411 524.644L407.4 483.292L390.717 443.033L376.966 441.071L365.19 425.369L359.291 431.257L363.216 465.616L348.496 490.161V505.874L341.626 523.539L374.834 524.746H423.113Z" fill="white" stroke="#263238" stroke-width="1.128" stroke-linecap="round" stroke-linejoin="round"/>
<path d="M396.379 524.678L393.864 510.634L397.823 502.343L396.74 486.134L399.989 489.383L421.962 524.678H396.379Z" fill="#CCCCCC" stroke="#263238" stroke-width="1.128" stroke-linecap="round" stroke-linejoin="round"/>
<path d="M396.74 486.134L412.239 493.703L418.353 501.261L436.006 510.273L448.256 517.842L455.78 524.745L421.962 524.678L396.74 486.134Z" fill="white" stroke="#263238" stroke-width="1.128" stroke-linecap="round" stroke-linejoin="round"/>
<path d="M348.496 490.161V505.874L341.096 524.43L369.127 524.791L363.216 491.143L375.004 480.348L359.291 431.257L363.216 465.616L348.496 490.161Z" fill="#CCCCCC" stroke="#263238" stroke-width="1.128" stroke-linecap="round" stroke-linejoin="round"/>
<path d="M376.966 441.071L387.333 462.988L391.912 463.45L395.578 474.448" stroke="#263238" stroke-width="1.128" stroke-miterlimit="10"/>
<path d="M383.926 507.375L385.505 512.496" stroke="#263238" stroke-width="1.128" stroke-miterlimit="10"/>
<path d="M377.711 467.567L380.914 479.953L386.419 489.112L380.001 494.617L382.776 503.63" stroke="#263238" stroke-width="1.128" stroke-miterlimit="10"/>
<path d="M246.739 215.73L223.728 240.896L222.938 194.761L245.848 166.944L246.739 215.73Z" fill="#CCCCCC" stroke="#263238" stroke-width="1.128" stroke-linecap="round" stroke-linejoin="round"/>
<path d="M230.766 316.483L254.296 295.716C255.985 294.252 257.863 293.023 259.88 292.062C262.411 290.861 265.057 289.916 267.776 289.242C271.262 288.394 274.806 287.805 278.379 287.482C282.879 287.067 287.398 286.901 291.915 286.986C302.838 287.13 313.735 288.092 324.514 289.862C333.474 291.345 342.331 293.391 351.034 295.987C358.862 298.322 365.698 300.826 371.597 303.139C377.497 305.451 382.37 307.572 386.318 309.128L355.783 328.925C352.049 327.458 347.413 325.462 341.852 323.285C336.291 321.108 329.805 318.773 322.394 316.517C314.162 314.072 305.783 312.154 297.307 310.775C287.101 309.116 276.785 308.227 266.445 308.113C262.16 308.039 257.875 308.205 253.608 308.609C250.229 308.921 246.877 309.482 243.58 310.29C240.988 310.927 238.467 311.826 236.057 312.975C234.143 313.9 232.364 315.081 230.766 316.483Z" fill="#CCCCCC" stroke="#263238" stroke-width="1.128" stroke-linecap="round" stroke-linejoin="round"/>
<path d="M305.688 486.292L279.135 496.444C281.455 495.582 283.678 494.478 285.767 493.15C287.618 491.97 289.283 490.522 290.708 488.853C292.053 487.272 293.093 485.455 293.776 483.495C294.479 481.407 294.808 479.211 294.746 477.009C294.728 473.166 293.548 469.419 291.362 466.259C288.56 462.542 284.98 459.482 280.872 457.291C274.956 454.059 268.737 451.415 262.305 449.395C254.635 446.812 245.385 444.263 234.5 441.612C219.674 438.16 205.157 433.497 191.094 427.67C178.394 422.465 166.471 415.534 155.664 407.073C145.738 399.319 137.562 389.555 131.671 378.422C125.699 366.59 122.607 353.515 122.647 340.261C122.591 334.878 122.968 329.499 123.775 324.176C124.546 319.059 125.754 314.017 127.385 309.106C128.991 304.294 131.018 299.632 133.442 295.175C135.885 290.715 138.712 286.476 141.891 282.508L160.176 259.575C153.433 267.964 148.245 277.492 144.858 287.708C143.114 292.899 141.824 298.232 141 303.646C140.164 309.284 139.787 314.98 139.872 320.679C139.863 334.73 143.167 348.584 149.516 361.118C155.764 372.92 164.427 383.274 174.941 391.506C185.635 400.113 198.347 407.298 212.481 413.311C227.361 419.498 242.723 424.455 258.413 428.132C269.975 430.952 279.71 433.671 287.82 436.412C294.629 438.575 301.207 441.405 307.459 444.861C312.512 447.805 316.133 450.918 318.525 454.347C320.856 457.687 322.118 461.656 322.145 465.729C322.221 468.061 321.877 470.388 321.13 472.598C320.411 474.661 319.318 476.573 317.904 478.238C316.397 479.993 314.636 481.513 312.682 482.75C310.482 484.174 308.137 485.361 305.688 486.292Z" fill="#CCCCCC" stroke="#263238" stroke-width="1.128" stroke-linecap="round" stroke-linejoin="round"/>
<path d="M174.942 391.506C185.635 400.113 198.348 407.298 212.481 413.311C227.361 419.498 242.724 424.455 258.414 428.132C269.976 430.952 279.71 433.671 287.82 436.412C294.629 438.575 301.207 441.405 307.459 444.861C312.512 447.805 316.133 450.918 318.525 454.347C320.856 457.687 322.118 461.656 322.146 465.729C322.332 469.956 321.049 474.117 318.513 477.505C315.705 480.993 312.056 483.71 307.91 485.401C302.728 487.577 297.282 489.064 291.712 489.823C284.947 490.802 278.119 491.28 271.284 491.255C260.617 491.281 249.964 490.489 239.418 488.887C229.291 487.351 219.267 485.2 209.402 482.446C199.814 479.772 190.688 476.682 182.183 473.422C173.678 470.162 165.782 466.654 158.664 463.27L144.249 524.52H403.339C411.412 515.527 417.729 505.102 421.962 493.782C426.399 481.722 428.46 468.917 428.031 456.073C427.647 442.345 425.561 430.129 421.466 419.176C417.392 408.227 411.05 398.263 402.854 389.938C394.428 381.298 383.678 373.684 370.3 366.893C356.922 360.103 340.814 354.091 321.796 348.665C309.553 345.1 298.849 341.679 289.682 338.4C281.855 335.691 274.22 332.458 266.828 328.722C260.737 325.53 256.169 322.36 253.123 319.111C250.078 315.863 248.521 312.558 248.453 309.083C248.367 306.242 248.979 303.422 250.236 300.872C251.802 297.906 254.14 295.42 257.004 293.675C261.117 291.195 265.652 289.494 270.382 288.655C277.508 287.322 284.758 286.758 292.005 286.975C302.928 287.119 313.825 288.081 324.605 289.851C333.564 291.334 342.421 293.38 351.124 295.976C358.952 298.311 365.788 300.815 371.687 303.128C377.587 305.44 382.46 307.561 386.408 309.117L403.192 233.541C397.913 231.285 392.239 229.029 386.024 226.886C379.809 224.743 373.041 222.735 365.607 220.919C358.174 219.103 350.052 217.535 341.118 216.17C332.185 214.805 322.405 213.835 311.689 213.203L310.708 168.512L245.904 166.944L246.795 215.73C231.036 217.905 215.659 222.275 201.111 228.713C188.585 234.248 177.151 241.98 167.35 251.544C158.383 260.399 151.333 271.004 146.64 282.699C141.906 294.79 139.606 307.697 139.872 320.679C139.863 334.73 143.167 348.584 149.516 361.118C155.764 372.92 164.427 383.275 174.942 391.506Z" fill="url(#paint2_linear_14_335)" stroke="white" stroke-width="1.128" stroke-linecap="round" stroke-linejoin="round"/>
<path d="M144.249 524.52L158.664 463.236L140.199 474.786L128.445 524.52H144.249Z" fill="#CCCCCC" stroke="#263238" stroke-width="1.128" stroke-linecap="round" stroke-linejoin="round"/>
<path d="M455.881 509.732C454.745 509.518 453.57 509.748 452.599 510.375L457.652 513.409C457.787 513.052 457.847 512.671 457.83 512.29C457.813 511.909 457.719 511.535 457.554 511.191C457.388 510.848 457.155 510.541 456.867 510.29C456.58 510.039 456.244 509.849 455.881 509.732Z" fill="#263238"/>
<path d="M457.302 469.801C457.302 469.801 457.979 466.958 458.002 466.778C458.227 464.646 457.404 460.382 455.204 459.401C454.834 459.249 454.436 459.177 454.037 459.189C453.637 459.202 453.244 459.298 452.884 459.473C452.525 459.648 452.206 459.896 451.948 460.202C451.691 460.509 451.502 460.866 451.392 461.25C450.862 462.864 451.662 464.792 452.576 466.112C453.659 467.669 457.302 469.789 457.302 469.801Z" fill="#263238"/>
<path d="M490.748 487.149C492.124 485.491 493.782 481.509 492.485 479.456C492.261 479.125 491.97 478.844 491.63 478.633C491.291 478.422 490.91 478.285 490.513 478.232C490.117 478.178 489.714 478.21 489.33 478.324C488.947 478.438 488.592 478.631 488.289 478.892C487.679 479.507 487.211 480.247 486.918 481.062C486.626 481.877 486.516 482.746 486.597 483.608C486.597 485.491 488.503 489.248 488.514 489.248C488.525 489.248 490.68 487.296 490.748 487.149Z" fill="#263238"/>
<path d="M444.274 502.829C445.867 503.847 447.611 504.608 449.44 505.085C449.294 505.919 449.147 506.754 448.966 507.555C448.966 507.758 448.865 507.961 448.82 508.175L449.88 508.807C449.948 508.48 450.016 508.141 450.094 507.814C450.354 506.495 450.568 505.152 450.737 503.799C452.547 504.466 454.45 504.847 456.377 504.927C457.249 504.904 458.104 504.69 458.884 504.3C459.664 503.91 460.348 503.354 460.889 502.671C461.106 502.333 461.249 501.953 461.309 501.556C461.37 501.159 461.346 500.754 461.239 500.367C461.133 499.979 460.946 499.619 460.692 499.309C460.437 498.998 460.12 498.745 459.761 498.565C457.584 497.538 453.817 499.693 452.339 501.261C452.249 501.362 451.324 502.603 450.828 503.302C450.929 502.479 451.031 501.667 451.11 500.832C451.324 498.441 451.471 496.004 451.617 493.579C451.617 492.846 451.719 492.101 451.775 491.323C452.091 491.436 455.791 492.677 457.596 492.451C459.186 492.282 461.183 491.628 462.108 490.195C462.324 489.858 462.467 489.479 462.527 489.083C462.587 488.687 462.563 488.282 462.457 487.896C462.351 487.51 462.164 487.15 461.91 486.841C461.655 486.532 461.338 486.279 460.98 486.1C458.803 485.074 455.035 487.228 453.557 488.796C453.456 488.92 452.114 490.714 451.798 491.176C451.911 489.552 452.046 487.928 452.238 486.326C452.48 484.173 452.857 482.037 453.366 479.93C453.512 479.93 457.381 481.295 459.22 481.058C460.822 480.889 462.807 480.235 463.732 478.802C463.948 478.465 464.091 478.086 464.151 477.69C464.212 477.294 464.188 476.889 464.081 476.503C463.975 476.117 463.788 475.758 463.534 475.448C463.279 475.139 462.962 474.886 462.604 474.708C460.427 473.67 456.659 475.836 455.193 477.403C455.069 477.528 453.636 479.456 453.4 479.817C453.4 479.693 453.456 479.569 453.49 479.445C454.08 477.351 454.854 475.313 455.802 473.354C456.31 472.226 456.863 471.245 457.415 470.274C458.115 470.59 461.307 472.012 462.976 472.023C464.646 472.034 466.631 471.606 467.669 470.252C467.923 469.942 468.108 469.583 468.214 469.197C468.32 468.81 468.343 468.406 468.283 468.011C468.222 467.615 468.079 467.236 467.862 466.899C467.646 466.563 467.361 466.275 467.026 466.056C464.984 464.792 461.002 466.53 459.367 467.928C459.276 468.007 458.453 468.876 457.866 469.519C458.126 469.079 458.385 468.628 458.645 468.21C459.604 466.665 460.574 465.311 461.442 464.104C461.938 463.428 462.401 462.83 462.841 462.266C464.788 462.228 466.717 461.889 468.56 461.262C469.981 460.529 471.605 459.198 471.944 457.528C472.02 457.14 472.014 456.741 471.927 456.356C471.841 455.97 471.675 455.607 471.441 455.289C471.206 454.971 470.908 454.705 470.566 454.508C470.223 454.311 469.844 454.187 469.451 454.144C467.048 453.975 464.319 457.348 463.506 459.333C463.439 459.513 462.649 462.322 462.694 462.322H462.751C462.311 462.852 461.848 463.45 461.363 464.059C460.461 465.244 459.457 466.586 458.464 468.12C457.382 469.763 456.391 471.465 455.498 473.219C454.489 475.182 453.659 477.232 453.016 479.344C453.016 479.344 453.016 479.4 453.016 479.423C453.016 478.712 452.914 476.749 452.892 476.591C452.542 474.471 450.636 470.579 448.245 470.218C447.847 470.171 447.445 470.207 447.063 470.325C446.68 470.442 446.327 470.639 446.025 470.901C445.724 471.164 445.48 471.486 445.311 471.849C445.141 472.211 445.049 472.604 445.041 473.004C444.962 474.708 446.248 476.388 447.478 477.392C448.876 478.52 452.655 479.648 452.96 479.648C452.361 481.812 451.905 484.012 451.595 486.236C451.403 487.533 451.256 488.841 451.132 490.161C451.132 489.552 451.065 489.033 451.053 488.932C450.704 486.811 448.797 482.908 446.406 482.558C446.009 482.509 445.606 482.544 445.224 482.661C444.842 482.778 444.488 482.975 444.187 483.238C443.886 483.501 443.643 483.824 443.476 484.187C443.308 484.55 443.219 484.945 443.214 485.345C443.135 487.037 444.421 488.729 445.65 489.721C447.296 490.74 449.087 491.501 450.963 491.977C450.963 492.474 450.862 492.981 450.828 493.489C450.613 495.914 450.422 498.328 450.151 500.697C450.061 501.531 449.937 502.355 449.812 503.167C449.812 502.626 449.812 502.174 449.812 502.107C449.463 499.986 447.556 496.094 445.165 495.733C444.768 495.684 444.365 495.719 443.983 495.836C443.601 495.953 443.247 496.15 442.946 496.413C442.645 496.676 442.402 496.999 442.235 497.362C442.067 497.725 441.978 498.12 441.973 498.52C441.759 500.144 443.044 501.802 444.274 502.829Z" fill="#263238"/>
<path d="M507.273 482.841C505.367 481.363 501.227 482.671 499.456 483.89C499.298 483.991 497.087 485.909 497.132 485.931C496.478 486.123 495.779 486.349 495.012 486.608C493.613 487.104 492.034 487.668 490.364 488.402C488.548 489.164 486.782 490.038 485.074 491.019C483.151 492.099 481.327 493.349 479.626 494.752L479.569 494.809C479.941 494.211 480.957 492.553 481.013 492.383C481.893 490.421 482.446 486.112 480.652 484.487C480.348 484.228 479.993 484.036 479.61 483.923C479.227 483.81 478.824 483.779 478.428 483.832C478.032 483.886 477.652 484.022 477.312 484.232C476.972 484.442 476.681 484.721 476.456 485.051C475.452 486.416 475.61 488.503 476.061 490.048C476.591 491.786 479.163 494.741 479.377 494.978C477.676 496.442 476.082 498.025 474.606 499.715C473.726 500.697 472.88 501.701 472.045 502.727C472.361 502.208 472.632 501.735 472.666 501.667C473.546 499.704 474.098 495.395 472.305 493.771C472.001 493.512 471.646 493.319 471.263 493.206C470.879 493.093 470.477 493.063 470.081 493.116C469.685 493.169 469.305 493.305 468.965 493.515C468.625 493.725 468.333 494.004 468.109 494.335C467.105 495.7 467.263 497.798 467.725 499.332C468.536 501.085 469.613 502.702 470.917 504.126L469.97 505.254C468.458 507.172 466.958 509.078 465.458 510.894C464.928 511.537 464.33 512.157 463.822 512.766L464.353 511.841C465.232 509.89 465.785 505.581 463.992 503.945C463.688 503.686 463.333 503.494 462.949 503.381C462.566 503.268 462.163 503.237 461.768 503.29C461.372 503.344 460.991 503.48 460.651 503.69C460.312 503.9 460.02 504.179 459.795 504.509C458.791 505.874 458.949 507.961 459.412 509.506C460.165 511.282 461.202 512.924 462.48 514.368L461.352 515.586L462.345 516.184C463.033 515.474 463.698 514.729 464.364 513.928C465.51 515.469 466.888 516.823 468.447 517.944C469.187 518.396 470.016 518.68 470.878 518.778C471.739 518.875 472.611 518.783 473.433 518.508C473.8 518.349 474.129 518.115 474.399 517.821C474.669 517.527 474.874 517.179 475.001 516.8C475.128 516.421 475.173 516.02 475.134 515.622C475.095 515.224 474.973 514.839 474.775 514.492C473.523 512.428 469.135 512.157 467.105 512.654C466.969 512.654 465.514 513.206 464.713 513.511C465.244 512.879 465.785 512.259 466.304 511.605C467.804 509.732 469.271 507.781 470.737 505.84L472.091 504.081C472.294 504.34 474.708 507.465 476.309 508.254C477.048 508.704 477.875 508.987 478.734 509.084C479.593 509.182 480.463 509.091 481.284 508.818C481.651 508.66 481.98 508.426 482.25 508.132C482.52 507.837 482.725 507.489 482.852 507.11C482.978 506.731 483.024 506.33 482.985 505.932C482.946 505.535 482.824 505.15 482.626 504.803C481.385 502.738 477.054 502.456 474.956 502.953C474.798 502.953 472.7 503.754 472.181 503.968C473.173 502.671 474.177 501.396 475.226 500.167C476.623 498.503 478.13 496.935 479.738 495.474C479.829 495.598 482.322 498.858 483.968 499.682C485.39 500.426 487.409 500.979 488.943 500.246C489.311 500.088 489.641 499.855 489.912 499.561C490.184 499.267 490.39 498.919 490.518 498.54C490.645 498.161 490.692 497.76 490.654 497.362C490.616 496.963 490.494 496.578 490.297 496.23C489.044 494.166 484.713 493.895 482.626 494.38C482.457 494.38 480.201 495.237 479.795 495.418L480.077 495.147C481.724 493.726 483.495 492.454 485.367 491.346C486.394 490.714 487.409 490.218 488.413 489.676C488.819 490.319 490.669 493.263 492.09 494.188C493.511 495.113 495.372 495.846 496.974 495.316C497.356 495.198 497.709 495.001 498.01 494.738C498.311 494.475 498.553 494.152 498.721 493.789C498.889 493.427 498.979 493.033 498.985 492.633C498.991 492.234 498.913 491.837 498.757 491.47C497.741 489.281 493.466 488.537 491.334 488.796C491.21 488.796 490.048 489.09 489.202 489.304C489.665 489.078 490.127 488.842 490.567 488.638C492.225 487.871 493.782 487.274 495.169 486.755L497.358 485.999C499.001 487.034 500.793 487.814 502.671 488.311C503.523 488.466 504.399 488.432 505.237 488.212C506.075 487.991 506.855 487.59 507.521 487.037C507.799 486.754 508.015 486.417 508.154 486.046C508.293 485.675 508.353 485.279 508.33 484.884C508.306 484.488 508.2 484.102 508.018 483.75C507.836 483.398 507.582 483.088 507.273 482.841Z" fill="#263238"/>
<path d="M449.756 524.701L451.053 525.502L451.854 524.915L452.159 524.689L449.756 524.701Z" fill="#263238"/>
<path d="M76.0385 450.072C75.7036 450.29 75.4181 450.575 75.2006 450.91C74.983 451.245 74.8382 451.622 74.7755 452.017C74.7127 452.411 74.7335 452.814 74.8364 453.2C74.9393 453.586 75.1221 453.946 75.373 454.257C76.1793 455.19 77.3065 455.786 78.5314 455.926L80.9566 450.388C79.2533 449.621 77.2906 449.26 76.0385 450.072Z" fill="#263238"/>
<path d="M87.2621 442.796C86.4993 443.367 85.9573 444.184 85.728 445.109L89.9806 442.729C89.5618 442.499 89.0897 442.385 88.6122 442.397C88.1348 442.408 87.669 442.546 87.2621 442.796Z" fill="#263238"/>
<path d="M87.984 402.482C89.4278 403.7 93.4999 404.806 93.4999 404.806C93.4999 404.806 93.421 401.895 93.3871 401.715C93.0487 399.594 91.1311 395.691 88.7736 395.319C88.3765 395.266 87.9727 395.299 87.589 395.413C87.2052 395.528 86.8503 395.723 86.5475 395.986C86.2447 396.248 86.001 396.571 85.8325 396.935C85.664 397.298 85.5746 397.693 85.5701 398.094C85.525 399.786 86.856 401.444 87.984 402.482Z" fill="#263238"/>
<path d="M58.2838 415.273C58.2838 415.273 56.603 412.893 56.479 412.758C55.0351 411.179 51.2902 408.968 49.1018 409.972C48.7437 410.149 48.4271 410.4 48.1726 410.709C47.9181 411.017 47.7316 411.376 47.6251 411.761C47.5187 412.146 47.4947 412.55 47.5548 412.945C47.6149 413.34 47.7577 413.719 47.9738 414.055C48.8311 415.521 50.8051 416.198 52.4069 416.39C54.2681 416.604 58.2838 415.284 58.2838 415.273Z" fill="#263238"/>
<path d="M56.1631 406.272C56.2759 406.948 56.4 407.67 56.5466 408.46C56.8399 409.915 57.1783 411.551 57.6746 413.31C58.1771 415.226 58.7949 417.109 59.5245 418.95C60.3299 421.003 61.3151 422.981 62.4686 424.861V424.929C61.9385 424.478 60.3931 423.237 60.2126 423.158C58.3965 422.03 54.2004 420.902 52.3166 422.413C52.0179 422.68 51.7789 423.007 51.6152 423.372C51.4515 423.738 51.3669 424.134 51.3669 424.534C51.3669 424.934 51.4515 425.33 51.6152 425.696C51.7789 426.061 52.0179 426.388 52.3166 426.655C53.5349 427.839 55.6217 427.974 57.2121 427.783C59.0057 427.512 62.2881 425.357 62.5476 425.188C63.7776 427.07 65.1264 428.871 66.5858 430.58C67.4318 431.573 68.3117 432.554 69.2141 433.524L68.244 432.757C66.4279 431.629 62.2317 430.501 60.348 432.024C60.0508 432.292 59.8132 432.619 59.6506 432.984C59.488 433.349 59.4039 433.745 59.4039 434.145C59.4039 434.544 59.488 434.94 59.6506 435.305C59.8132 435.671 60.0508 435.998 60.348 436.265C61.0367 436.789 61.8317 437.157 62.6773 437.342C63.5229 437.527 64.3987 437.525 65.2435 437.337C67.093 436.774 68.8463 435.933 70.4436 434.844C70.7933 435.205 71.1317 435.577 71.4813 435.972C73.1621 437.732 74.8653 439.48 76.4445 441.251C77.0085 441.871 77.5725 442.503 78.0801 443.135L77.2341 442.48C75.4181 441.352 71.2219 440.224 69.3381 441.736C69.041 442.004 68.8034 442.331 68.6408 442.696C68.4781 443.061 68.3941 443.457 68.3941 443.857C68.3941 444.257 68.4781 444.652 68.6408 445.017C68.8034 445.383 69.041 445.71 69.3381 445.977C70.5564 447.162 72.6545 447.297 74.2337 447.105C76.0363 446.567 77.7447 445.752 79.2984 444.691C79.8285 445.346 80.3587 446.011 80.8437 446.688C81.1596 447.15 81.498 447.568 81.7913 448.053V448.12L82.2199 447.15L82.4681 447.004L81.7349 446.011C80.9227 444.94 80.0541 443.89 79.1517 442.864C80.8238 441.938 82.3452 440.762 83.6637 439.378C84.2131 438.708 84.6097 437.925 84.8259 437.086C85.0422 436.246 85.0728 435.369 84.9158 434.517C84.8094 434.132 84.6231 433.774 84.369 433.466C84.1149 433.158 83.7988 432.907 83.4412 432.729C83.0837 432.551 82.6927 432.451 82.2937 432.434C81.8947 432.418 81.4968 432.486 81.1257 432.633C78.8697 433.581 78.035 437.833 78.2381 439.965C78.2381 440.1 78.5652 441.623 78.7569 442.458C78.2042 441.838 77.6289 441.217 77.0988 440.608C75.4406 438.86 73.7148 437.145 72.0002 435.419L70.4436 433.84C70.7256 433.671 74.1096 431.719 75.1586 430.242C75.7785 429.583 76.24 428.791 76.5078 427.927C76.7756 427.063 76.8427 426.15 76.704 425.256C76.5973 424.871 76.4109 424.513 76.1571 424.205C75.9032 423.896 75.5874 423.645 75.2302 423.466C74.8729 423.287 74.4822 423.186 74.0832 423.168C73.6842 423.149 73.2858 423.215 72.9139 423.361C70.6579 424.308 69.8232 428.561 70.0262 430.704C70.0262 430.862 70.4887 433.05 70.6353 433.603C69.5073 432.475 68.3793 431.257 67.2513 430.061C65.8015 428.444 64.46 426.734 63.2357 424.94C63.371 424.861 66.9129 422.831 67.9845 421.33C68.5336 420.662 68.9302 419.881 69.1464 419.044C69.3627 418.206 69.3935 417.331 69.2366 416.48C69.1355 416.088 68.9522 415.723 68.6989 415.407C68.4457 415.092 68.1283 414.834 67.7678 414.65C67.4072 414.467 67.0118 414.362 66.6077 414.343C66.2037 414.324 65.8002 414.391 65.424 414.54C63.168 415.487 62.3333 419.74 62.5363 421.883C62.5363 422.052 63.0439 424.399 63.1567 424.816L62.9311 424.511C61.7533 422.678 60.738 420.746 59.8968 418.736C59.423 417.608 59.0282 416.548 58.6673 415.487C60.4786 414.748 62.1643 413.732 63.6643 412.476C64.2807 411.871 64.7575 411.138 65.0614 410.33C65.3654 409.521 65.4891 408.656 65.424 407.794C65.3549 407.404 65.205 407.031 64.9839 406.702C64.7628 406.372 64.4753 406.092 64.1399 405.879C63.8044 405.667 63.4283 405.527 63.0356 405.468C62.643 405.41 62.2424 405.434 61.8595 405.538C59.6035 406.238 58.2273 410.366 58.1822 412.521C58.1822 412.634 58.295 413.829 58.3853 414.698C58.2386 414.213 58.0694 413.716 57.9228 413.254C57.3926 411.517 57.0204 409.87 56.7045 408.437C56.5241 407.614 56.3774 406.87 56.2533 406.181C57.5107 404.697 58.5305 403.026 59.2764 401.23C59.5504 400.409 59.641 399.538 59.5416 398.678C59.4422 397.819 59.1553 396.992 58.7011 396.255C58.4634 395.933 58.1605 395.666 57.8123 395.469C57.464 395.273 57.0782 395.152 56.68 395.114C56.2818 395.077 55.8803 395.124 55.5016 395.253C55.1229 395.381 54.7756 395.588 54.4824 395.86C52.7565 397.541 53.4672 401.816 54.4824 403.756C54.5501 403.824 56.1405 406.306 56.1631 406.272Z" fill="#263238"/>
<path d="M85.9423 414.63C87.5892 415.386 91.5147 415.409 91.8305 415.42C91.8061 417.682 91.9342 419.943 92.214 422.188C92.3719 423.485 92.575 424.794 92.7893 426.091C92.5975 425.515 92.4283 424.963 92.3945 424.963C91.5147 423 88.6495 419.74 86.2582 420.011C85.8621 420.067 85.4822 420.205 85.1432 420.418C84.8041 420.63 84.5135 420.911 84.2901 421.243C84.0668 421.575 83.9157 421.95 83.8466 422.344C83.7776 422.738 83.7921 423.142 83.8894 423.53C84.2503 425.188 85.9198 426.452 87.3862 427.129C89.2366 427.685 91.1619 427.951 93.0938 427.918C93.1841 428.414 93.2631 428.911 93.3533 429.407C93.7819 431.81 94.2218 434.19 94.5828 436.547C94.7069 437.382 94.7971 438.205 94.8986 439.029L94.5602 438.014C93.6691 436.051 90.804 432.791 88.4126 433.062C88.0217 433.118 87.6468 433.256 87.3119 433.465C86.977 433.675 86.6894 433.952 86.4676 434.279C86.2458 434.606 86.0945 434.975 86.0235 435.364C85.9525 435.753 85.9633 436.152 86.0551 436.536C86.4161 438.194 88.0855 439.458 89.5406 440.134C90.7818 440.57 92.0834 440.81 93.3984 440.845L96.0266 439.367L98.1022 438.239L103.776 432.024C103.648 431.976 103.516 431.938 103.381 431.911C101.012 431.483 97.933 434.539 96.9178 436.423C96.9178 436.547 96.2861 437.991 95.9815 438.781C95.8687 437.969 95.7559 437.156 95.6093 436.333C95.2032 433.964 94.7069 431.584 94.2331 429.193C94.0752 428.471 93.9399 427.738 93.8045 427.004C94.1316 427.004 98.0345 427.264 99.7152 426.621C101.215 426.046 102.975 424.895 103.438 423.237C103.554 422.857 103.589 422.456 103.541 422.062C103.494 421.667 103.363 421.287 103.159 420.945C102.955 420.604 102.682 420.309 102.357 420.08C102.031 419.852 101.662 419.693 101.272 419.616C98.903 419.187 95.8349 422.244 94.8197 424.128C94.7407 424.275 93.9173 426.384 93.6917 426.892C93.3871 425.279 93.0939 423.677 92.8682 422.086C92.5492 419.938 92.3721 417.772 92.3381 415.6C92.496 415.6 96.5681 415.871 98.2939 415.217C99.1234 414.958 99.8862 414.521 100.529 413.936C101.172 413.352 101.68 412.634 102.016 411.833C102.141 411.453 102.183 411.051 102.142 410.654C102.1 410.256 101.975 409.872 101.775 409.526C101.575 409.18 101.304 408.88 100.98 408.646C100.656 408.412 100.287 408.249 99.8957 408.167C97.5269 407.727 94.4474 410.795 93.4323 412.679C93.3533 412.825 92.4734 415.059 92.3042 415.476C92.3042 415.352 92.3042 415.217 92.3042 415.093C92.3379 412.916 92.5567 410.746 92.9585 408.607C93.1728 407.422 93.4435 406.351 93.7255 405.223C94.4813 405.347 97.933 405.888 99.546 405.46C101.159 405.031 102.93 404.106 103.618 402.538C103.782 402.174 103.868 401.779 103.87 401.38C103.872 400.98 103.79 400.585 103.629 400.219C103.469 399.854 103.233 399.526 102.938 399.257C102.642 398.988 102.294 398.784 101.915 398.658C99.6588 397.97 96.2748 400.677 95.0002 402.448C94.9325 402.538 94.3685 403.576 93.9624 404.365C94.0978 403.88 94.2331 403.373 94.3685 402.91C94.8987 401.173 95.4965 399.605 96.0041 398.218C96.3199 397.44 96.6132 396.74 96.8839 396.086C97.6961 395.815 100.922 394.732 102.14 393.627C103.359 392.521 104.554 390.841 104.396 389.115C104.375 388.715 104.269 388.325 104.087 387.969C103.904 387.612 103.649 387.299 103.337 387.048C103.025 386.796 102.664 386.614 102.277 386.511C101.891 386.409 101.486 386.389 101.091 386.453C98.7226 386.904 96.9629 390.875 96.6922 393.007C96.6922 393.198 96.6922 396.12 96.6922 396.109C96.4102 396.74 96.1169 397.406 95.801 398.15C95.2483 399.526 94.673 401.083 94.0639 402.82C93.4409 404.688 92.9249 406.59 92.5186 408.517C92.0928 410.688 91.8587 412.892 91.8192 415.104V415.183C91.6274 414.506 91.0183 412.622 90.9619 412.487C90.0708 410.524 87.2057 407.264 84.8143 407.535C84.4185 407.591 84.0388 407.729 83.7002 407.942C83.3615 408.154 83.0715 408.436 82.849 408.768C82.6265 409.1 82.4766 409.475 82.409 409.869C82.3414 410.263 82.3577 410.667 82.4568 411.055C82.8178 412.69 84.4872 413.976 85.9423 414.63Z" fill="#263238"/>
<path d="M249.536 439.649C249.14 439.705 248.761 439.844 248.422 440.056C248.083 440.269 247.793 440.55 247.571 440.882C247.348 441.214 247.198 441.59 247.131 441.984C247.063 442.378 247.08 442.781 247.179 443.169C247.461 443.987 247.919 444.734 248.521 445.355C249.124 445.977 249.855 446.459 250.664 446.767C251.774 447.166 252.938 447.395 254.116 447.444L255.12 446.248L255.684 444.613C254.793 442.639 251.928 439.379 249.536 439.649Z" fill="#263238"/>
<path d="M237.162 456.693C236.827 456.911 236.542 457.197 236.324 457.532C236.106 457.867 235.962 458.243 235.899 458.638C235.836 459.032 235.857 459.436 235.96 459.822C236.063 460.207 236.246 460.567 236.496 460.878C237.512 462.243 239.565 462.683 241.166 462.683C242.215 462.606 243.246 462.371 244.223 461.984L244.877 458.69L244.81 458.622C243.185 457.212 239.215 455.453 237.162 456.693Z" fill="#263238"/>
<path d="M248.386 449.474C246.547 450.602 246.186 454.234 246.513 456.468L251.916 450.049C251.49 449.553 250.902 449.222 250.256 449.117C249.61 449.012 248.947 449.138 248.386 449.474Z" fill="#263238"/>
<path d="M231.725 441.409C232.075 441.77 232.413 442.142 232.763 442.537C234.443 444.297 236.147 446.045 237.726 447.816C238.29 448.437 238.854 449.068 239.361 449.7L238.515 449.046C236.699 447.918 232.503 446.79 230.619 448.301C230.322 448.569 230.085 448.896 229.922 449.261C229.759 449.627 229.675 450.022 229.675 450.422C229.675 450.822 229.759 451.217 229.922 451.582C230.085 451.948 230.322 452.275 230.619 452.542C231.838 453.727 233.936 453.862 235.515 453.67C237.318 453.132 239.026 452.318 240.58 451.257C241.11 451.922 241.64 452.576 242.125 453.253C242.441 453.716 242.779 454.133 243.073 454.618L243.964 456.017C244.37 456.716 244.787 457.415 245.182 458.104L246.051 457.077C245.712 456.513 245.362 455.949 244.99 455.351L244.065 453.964C243.772 453.501 243.4 453.039 243.061 452.576C242.249 451.448 241.381 450.456 240.478 449.429C242.15 448.503 243.672 447.328 244.99 445.944C245.54 445.273 245.936 444.491 246.152 443.651C246.369 442.811 246.399 441.935 246.242 441.082C246.142 440.699 245.963 440.342 245.717 440.032C245.471 439.723 245.163 439.468 244.812 439.284C244.462 439.1 244.077 438.992 243.682 438.965C243.287 438.939 242.892 438.995 242.52 439.131C240.264 440.078 239.429 444.331 239.632 446.463C239.632 446.598 239.959 448.121 240.151 448.955C239.598 448.335 239.023 447.715 238.493 447.117C236.835 445.368 235.109 443.643 233.394 441.917L231.838 440.338C232.12 440.168 235.504 438.217 236.553 436.739C237.103 436.071 237.5 435.291 237.716 434.453C237.932 433.615 237.962 432.74 237.805 431.889C237.698 431.504 237.512 431.146 237.258 430.837C237.004 430.529 236.688 430.277 236.331 430.099C235.974 429.92 235.583 429.819 235.184 429.8C234.785 429.782 234.387 429.848 234.015 429.994C231.759 430.941 230.924 435.194 231.127 437.337C231.127 437.495 231.59 439.683 231.736 440.236C230.608 439.108 229.48 437.89 228.352 436.694C226.902 435.077 225.561 433.367 224.337 431.573C224.472 431.494 228.014 429.464 229.085 427.963C229.635 427.295 230.031 426.514 230.247 425.676C230.464 424.839 230.494 423.964 230.337 423.113C230.231 422.728 230.044 422.37 229.791 422.062C229.537 421.753 229.221 421.502 228.864 421.323C228.506 421.144 228.116 421.043 227.717 421.025C227.318 421.007 226.919 421.072 226.547 421.218C224.291 422.165 223.457 426.418 223.66 428.561C223.66 428.73 224.167 431.077 224.28 431.494L224.055 431.189C222.877 429.356 221.861 427.424 221.02 425.414C220.546 424.286 220.152 423.226 219.791 422.165C221.6 421.426 223.285 420.414 224.788 419.165C225.859 417.958 226.886 416.142 226.559 414.472C226.49 414.082 226.34 413.709 226.119 413.379C225.898 413.05 225.61 412.77 225.275 412.557C224.939 412.345 224.563 412.205 224.17 412.146C223.778 412.088 223.377 412.112 222.994 412.216C220.738 412.916 219.362 417.056 219.317 419.199C219.317 419.312 219.43 420.507 219.52 421.376C219.373 420.891 219.204 420.394 219.057 419.932C218.527 418.195 218.155 416.548 217.839 415.115C217.659 414.292 217.512 413.548 217.388 412.859C218.645 411.375 219.665 409.704 220.411 407.908C220.685 407.087 220.776 406.216 220.676 405.356C220.577 404.497 220.29 403.67 219.836 402.933C219.598 402.611 219.295 402.344 218.947 402.147C218.599 401.951 218.213 401.83 217.815 401.792C217.417 401.755 217.015 401.802 216.636 401.931C216.258 402.059 215.91 402.266 215.617 402.538C213.891 404.219 214.602 408.505 215.617 410.434C215.707 410.603 217.298 413.051 217.32 413.017C217.433 413.694 217.557 414.416 217.704 415.206C217.997 416.661 218.336 418.296 218.832 420.056C219.334 421.972 219.952 423.855 220.682 425.696C221.489 427.752 222.474 429.733 223.626 431.618C223.631 431.637 223.631 431.656 223.626 431.674C223.096 431.223 221.55 429.982 221.426 429.904C219.61 428.776 215.414 427.648 213.53 429.17C213.233 429.437 212.996 429.763 212.833 430.127C212.671 430.492 212.587 430.886 212.587 431.285C212.587 431.684 212.671 432.079 212.833 432.443C212.996 432.808 213.233 433.134 213.53 433.4C214.749 434.596 216.835 434.72 218.426 434.528C220.219 434.258 223.502 432.103 223.761 431.934C224.991 433.815 226.34 435.616 227.799 437.326C228.645 438.318 229.525 439.3 230.428 440.27L229.458 439.503C227.642 438.375 223.445 437.247 221.562 438.77C221.263 439.036 221.024 439.363 220.86 439.728C220.697 440.094 220.612 440.49 220.612 440.89C220.612 441.291 220.697 441.687 220.86 442.052C221.024 442.417 221.263 442.744 221.562 443.011C222.769 444.195 224.867 444.331 226.446 444.082C228.334 443.471 230.115 442.569 231.725 441.409Z" fill="#263238"/>
<path d="M249.153 409.159C250.596 410.378 254.668 411.483 254.668 411.483C254.668 411.483 254.59 408.573 254.556 408.392C254.217 406.272 252.3 402.369 249.942 401.997C249.545 401.946 249.142 401.979 248.759 402.095C248.376 402.211 248.022 402.406 247.72 402.668C247.417 402.93 247.174 403.252 247.005 403.615C246.836 403.977 246.745 404.372 246.739 404.772C246.648 406.464 247.923 408.122 249.153 409.159Z" fill="#263238"/>
<path d="M219.407 421.962C219.407 421.962 217.727 419.571 217.602 419.436C216.159 417.856 212.414 415.646 210.225 416.65C209.867 416.827 209.551 417.078 209.296 417.387C209.042 417.695 208.855 418.054 208.749 418.439C208.642 418.824 208.618 419.228 208.678 419.623C208.738 420.018 208.881 420.397 209.097 420.733C209.955 422.199 211.929 422.876 213.53 423.068C215.448 423.282 219.407 421.962 219.407 421.962Z" fill="#263238"/>
<path d="M247.032 421.308C248.679 422.064 252.604 422.098 252.92 422.098C252.898 424.341 253.026 426.583 253.304 428.809C253.462 430.106 253.665 431.415 253.879 432.723C253.687 432.137 253.518 431.595 253.484 431.595C252.604 429.633 249.739 426.373 247.348 426.644C246.952 426.699 246.572 426.838 246.233 427.05C245.894 427.263 245.603 427.544 245.38 427.876C245.156 428.208 245.005 428.583 244.936 428.977C244.867 429.371 244.882 429.775 244.979 430.163C245.34 431.821 247.009 433.084 248.476 433.761C250.326 434.317 252.252 434.584 254.184 434.551C254.274 435.047 254.353 435.543 254.443 436.04C254.872 438.442 255.312 440.834 255.673 443.18C255.673 443.53 255.751 443.879 255.797 444.229L256.507 442.199C256.124 440.101 255.695 437.991 255.278 435.882C255.131 435.16 254.984 434.427 254.849 433.705C256.387 433.797 257.93 433.763 259.463 433.603L261.448 427.862L263.016 426.497C262.809 426.395 262.589 426.323 262.362 426.283C259.993 425.854 256.925 428.911 255.909 430.795C255.83 430.941 255.007 433.051 254.781 433.558C254.477 431.945 254.184 430.343 253.958 428.753C253.639 426.605 253.462 424.438 253.428 422.267C253.586 422.267 257.658 422.538 259.384 421.883C260.213 421.624 260.976 421.187 261.619 420.603C262.262 420.018 262.769 419.3 263.106 418.499C263.23 418.119 263.273 417.718 263.231 417.32C263.19 416.923 263.065 416.538 262.865 416.193C262.665 415.847 262.394 415.547 262.07 415.313C261.746 415.078 261.377 414.915 260.985 414.833C258.617 414.393 255.537 417.462 254.522 419.345C254.443 419.492 253.563 421.725 253.394 422.143C253.394 422.019 253.394 421.895 253.394 421.759C253.428 419.583 253.646 417.413 254.048 415.273C254.263 414.145 254.533 413.017 254.815 411.889C255.571 412.013 259.023 412.555 260.636 412.126C262.249 411.697 264.02 410.773 264.708 409.205C264.872 408.84 264.958 408.446 264.959 408.046C264.961 407.647 264.879 407.252 264.719 406.886C264.558 406.52 264.323 406.192 264.027 405.923C263.732 405.654 263.384 405.45 263.005 405.324C260.749 404.636 257.365 407.343 256.09 409.114C256.022 409.205 255.458 410.242 255.052 411.032C255.187 410.547 255.323 410.039 255.458 409.577C255.988 407.84 256.586 406.272 257.094 404.884C257.41 404.106 257.703 403.407 257.974 402.752C258.786 402.482 262.012 401.399 263.23 400.293C264.448 399.188 265.644 397.507 265.486 395.781C265.464 395.382 265.359 394.991 265.176 394.635C264.994 394.279 264.738 393.965 264.427 393.714C264.115 393.463 263.754 393.28 263.367 393.178C262.98 393.075 262.576 393.055 262.181 393.119C259.812 393.571 258.053 397.541 257.793 399.673C257.793 399.865 257.737 402.786 257.793 402.775C257.511 403.407 257.218 404.072 256.913 404.817C256.349 406.193 255.729 407.749 255.165 409.487C254.542 411.354 254.026 413.256 253.62 415.183C253.161 417.344 252.893 419.54 252.819 421.748V421.872C252.627 421.195 252.018 419.311 251.961 419.176C251.07 417.213 248.205 413.953 245.814 414.224C245.418 414.28 245.038 414.419 244.7 414.631C244.361 414.843 244.071 415.125 243.848 415.457C243.626 415.789 243.476 416.164 243.408 416.558C243.341 416.952 243.357 417.356 243.456 417.744C243.941 419.368 245.611 420.631 247.032 421.308Z" fill="#263238"/>
<path d="M418.082 322.788L413.581 317.205L417.631 314.012L420.349 317.408L419.424 319.562L420.191 321.277L418.601 322.416" fill="white"/>
<path d="M418.082 322.788L413.581 317.205L417.631 314.012L420.349 317.408L419.424 319.562L420.191 321.277L418.601 322.416" stroke="#263238" stroke-width="1.128" stroke-linecap="round" stroke-linejoin="round"/>
<path d="M454.584 332.478C454.584 332.478 451.504 329.726 450.354 329.906C449.203 330.087 434.111 332.613 434.111 332.613L420.225 321.277L418.104 322.789L431.392 339.46L445.831 338.558L442.729 354.35L429.587 364.344L451.019 377.147L455.34 363.521L472.406 346.713L465.774 338.4L454.584 332.478Z" fill="#9921ED" stroke="#263238" stroke-width="1.128" stroke-linecap="round" stroke-linejoin="round"/>
<path d="M458.983 328.834L456.558 333.933L455.667 333.121L453.964 345.518L465.785 338.355L464.601 336.482L464.871 332.613L458.983 328.834Z" fill="white" stroke="#263238" stroke-width="1.128" stroke-linecap="round" stroke-linejoin="round"/>
<path d="M453.964 345.518L460.878 341.322L455.103 337.261L453.964 345.518Z" fill="white" stroke="#263238" stroke-width="1.128" stroke-linecap="round" stroke-linejoin="round"/>
<path d="M472.632 316.686C472.632 316.686 477.855 310.572 483.168 314.43C488.48 318.288 487.014 322.055 490.804 319.991C494.594 317.927 501.712 312.682 505.998 319.359C510.285 326.037 506.98 333.031 504.284 334.632C501.588 336.234 502.298 333.177 502.355 331.7C502.411 330.222 497.989 328.316 497.008 331.361C496.027 334.407 490.872 339.099 484.329 338.659C477.787 338.219 476.524 330.177 476.67 325.45C476.661 324.032 476.282 322.64 475.573 321.412C474.863 320.184 473.845 319.162 472.621 318.446L472.632 316.686Z" fill="#263238" stroke="#263238" stroke-width="1.128" stroke-linecap="round" stroke-linejoin="round"/>
<path d="M460.111 315.423C460.111 315.423 456.84 322.709 457.517 327.007C458.194 331.305 457.833 334.61 460.021 335.445C462.209 336.279 469.462 331.891 471.064 328.992C472.666 326.093 474.956 321.909 474.324 317.893C473.692 313.877 465.999 308.034 460.111 315.423Z" fill="white" stroke="#263238" stroke-width="1.128" stroke-linecap="round" stroke-linejoin="round"/>
<path d="M461.352 323.07C461.183 323.634 460.822 324.018 460.54 323.928C460.258 323.837 460.168 323.318 460.337 322.8C460.506 322.281 460.867 321.852 461.149 321.942C461.431 322.032 461.476 322.506 461.352 323.07Z" fill="#263238"/>
<path d="M466.563 325.236C466.394 325.8 466.022 326.195 465.74 326.105C465.458 326.014 465.367 325.496 465.537 324.977C465.706 324.458 466.078 324.029 466.36 324.108C466.642 324.187 466.732 324.672 466.563 325.236Z" fill="#263238"/>
<path d="M462.672 324.007C462.672 324.007 463.01 324.255 462.536 325.135C462.063 326.014 460.923 325.699 461.047 326.454C461.172 327.21 462.604 327.582 462.604 327.582" stroke="#263238" stroke-width="1.128" stroke-linecap="round" stroke-linejoin="round"/>
<path d="M460.043 328.891C460.043 328.891 461.86 330.606 463.484 330.188" stroke="#263238" stroke-width="1.128" stroke-linecap="round" stroke-linejoin="round"/>
<path d="M468.278 323.432L464.905 322.574" stroke="#263238" stroke-width="1.128" stroke-linecap="round" stroke-linejoin="round"/>
<path d="M462.243 321.3L460.63 319.856" stroke="#263238" stroke-width="1.128" stroke-linecap="round" stroke-linejoin="round"/>
<path d="M460.111 315.423C460.111 315.423 459.626 316.551 459.062 318.096C460.968 317.103 464.251 315.987 467.251 317.836C470.252 319.686 471.763 323.939 472.373 326.545C473.647 323.962 474.786 320.905 474.324 317.893C473.692 313.877 465.999 308.034 460.111 315.423Z" fill="#263238" stroke="#263238" stroke-width="1.128" stroke-linecap="round" stroke-linejoin="round"/>
<path d="M471.594 326.432C471.594 326.432 473.94 324.277 473.85 326.24C473.76 328.203 471.064 329.365 470.466 329.455C469.868 329.545 469.913 328.789 469.913 328.789" fill="white"/>
<path d="M471.594 326.432C471.594 326.432 473.94 324.277 473.85 326.24C473.76 328.203 471.064 329.365 470.466 329.455C469.868 329.545 469.913 328.789 469.913 328.789" stroke="#263238" stroke-width="1.128" stroke-linecap="round" stroke-linejoin="round"/>
<path d="M472.395 346.725L468.786 372.454C468.706 373.002 468.437 373.505 468.024 373.874C467.612 374.243 467.083 374.455 466.53 374.473H465.751C465.151 374.496 464.565 374.288 464.114 373.891C463.662 373.494 463.38 372.94 463.326 372.341L461.916 356.865L472.395 346.725Z" fill="#9921ED" stroke="#263238" stroke-width="1.128" stroke-linecap="round" stroke-linejoin="round"/>
<path d="M465.864 368.924L454.279 358.704L451.685 360.881L462.807 373.752C463.05 374.015 463.351 374.219 463.685 374.348C464.019 374.477 464.379 374.528 464.736 374.496H465.65C466 374.482 466.342 374.389 466.652 374.226C466.962 374.062 467.232 373.831 467.442 373.55C467.651 373.27 467.796 372.945 467.864 372.602C467.933 372.258 467.924 371.903 467.838 371.563" fill="#9921ED"/>
<path d="M465.864 368.924L454.279 358.704L451.685 360.881L462.807 373.752C463.05 374.015 463.351 374.219 463.685 374.348C464.019 374.477 464.379 374.528 464.736 374.496H465.65C466 374.482 466.342 374.389 466.652 374.226C466.962 374.062 467.232 373.831 467.442 373.55C467.651 373.27 467.796 372.945 467.864 372.602C467.933 372.258 467.924 371.903 467.838 371.563" stroke="#263238" stroke-width="1.128" stroke-linecap="round" stroke-linejoin="round"/>
<path d="M454.279 358.693L451.561 354.35L445.447 353.673L445.481 357.317L448.414 359.764L450.275 360.024L451.685 360.87L454.279 358.693Z" fill="white" stroke="#263238" stroke-width="1.128" stroke-linecap="round" stroke-linejoin="round"/>
<path d="M421.545 372.24C421.545 372.24 408.776 388.855 409.475 391.608C410.175 394.36 428.832 423.496 428.832 423.496L431.426 421.782L421.173 389.769L441.781 381.569L421.545 372.24Z" fill="white" stroke="#263238" stroke-width="1.128" stroke-linecap="round" stroke-linejoin="round"/>
<path d="M431.832 378.399L433.344 385.043L440.168 382.426L431.832 378.399Z" fill="#263238" stroke="#263238" stroke-width="1.128" stroke-miterlimit="10"/>
<path d="M428.832 423.44L425.448 429.08C425.448 429.08 422.752 433.118 423.541 433.366C425.267 433.919 429.734 430.986 431.009 430.084C432.283 429.181 433.648 428.583 434.494 427.986C435.34 427.388 437.032 427.038 434.72 424.895C433.942 424.184 431.471 421.725 431.471 421.725L428.832 423.44Z" fill="white" stroke="#263238" stroke-width="1.128" stroke-linecap="round" stroke-linejoin="round"/>
<path d="M449.914 366.939C444.166 364.646 438.286 362.698 432.306 361.107C421.962 358.298 414.314 356.121 414.461 358.704C414.608 361.287 433.423 402.899 433.423 402.899L436.649 401.873L431.731 378.929C431.731 378.929 439.627 384.456 445.458 381.715C451.29 378.974 453.512 371.563 453.106 369.037" fill="#263238"/>
<path d="M449.914 366.939C444.166 364.646 438.286 362.698 432.306 361.107C421.962 358.298 414.314 356.121 414.461 358.704C414.608 361.287 433.423 402.899 433.423 402.899L436.649 401.873L431.731 378.929C431.731 378.929 439.627 384.456 445.458 381.715C451.29 378.974 453.512 371.563 453.106 369.037" stroke="#263238" stroke-width="1.128" stroke-linecap="round" stroke-linejoin="round"/>
<path d="M430.106 360.509C420.902 358.016 414.314 356.301 414.461 358.704C414.608 361.287 433.423 402.899 433.423 402.899L436.649 401.872L431.731 378.929C433.411 374.834 431.629 366.228 430.106 360.509Z" fill="white" stroke="#263238" stroke-width="1.128" stroke-linecap="round" stroke-linejoin="round"/>
<path d="M431.731 378.929L423.62 367.164" stroke="#263238" stroke-width="1.128" stroke-linecap="round" stroke-linejoin="round"/>
<path d="M433.423 402.899L430.4 408.595C430.4 408.595 424.297 414.506 425.651 414.811C427.004 415.115 438.476 410.186 439.333 409.013C440.191 407.84 436.649 401.873 436.649 401.873L433.423 402.899Z" fill="white" stroke="#263238" stroke-width="1.128" stroke-linecap="round" stroke-linejoin="round"/>
<path d="M419.39 320.036L447.839 353.91" stroke="#263238" stroke-width="1.128" stroke-miterlimit="10"/>
<path d="M331.858 215.132L415.341 315.028" stroke="#263238" stroke-width="1.128" stroke-miterlimit="10"/>
<path d="M450.275 360.012V524.7" stroke="#263238" stroke-width="1.128" stroke-miterlimit="10"/>
<path d="M178.596 314.25C178.596 314.25 184.597 349.364 178.077 360.498C171.557 371.631 155.201 363.622 155.201 363.622V523.572" stroke="#263238" stroke-width="1.128" stroke-miterlimit="10"/>
<path d="M142.568 327.391C142.568 327.391 147.881 326.782 148.287 328.011C148.51 329.018 148.51 330.061 148.287 331.068C148.287 331.068 151.344 334.339 151.344 336.584C151.344 338.829 148.084 339.855 148.084 339.855L147.475 345.157L139.308 345.563L138.281 339.235C138.281 339.235 135.213 327.188 142.568 327.391Z" fill="white" stroke="#263238" stroke-width="1.128" stroke-linecap="round" stroke-linejoin="round"/>
<path d="M144.204 336.144L141.948 332.873C142.705 331.642 143.125 330.234 143.166 328.79C143.166 326.534 142.963 322.461 138.27 322.461C133.578 322.461 130.51 326.139 129.494 334.102C128.479 342.066 133.16 345.946 139.906 344.514C146.651 343.081 144.204 336.144 144.204 336.144Z" fill="#263238" stroke="#263238" stroke-width="1.128" stroke-linecap="round" stroke-linejoin="round"/>
<path d="M144 334.745C144 334.745 140.526 334.339 140.729 337.001C140.783 337.573 141.009 338.116 141.377 338.557C141.745 338.998 142.239 339.318 142.792 339.473C143.345 339.628 143.933 339.612 144.477 339.426C145.021 339.241 145.496 338.895 145.839 338.434" fill="white"/>
<path d="M144 334.745C144 334.745 140.526 334.339 140.729 337.001C140.783 337.573 141.009 338.116 141.377 338.557C141.745 338.998 142.239 339.318 142.792 339.473C143.345 339.628 143.933 339.612 144.477 339.426C145.021 339.241 145.496 338.895 145.839 338.434" stroke="#263238" stroke-width="1.128" stroke-linecap="round" stroke-linejoin="round"/>
<path d="M139.161 347.56L131.638 349.68C131.638 349.68 131.051 351.147 130.171 353.064C128.987 355.67 125.727 360.96 125.727 360.96L110.668 365.258L105.829 380.858L104.757 387.31L113.353 383.001L113.894 367.954L127.43 365.867L133.239 351.203L139.161 347.56Z" fill="#263238" stroke="#263238" stroke-width="1.128" stroke-linecap="round" stroke-linejoin="round"/>
<path d="M151.152 345.36C151.152 345.36 145.23 342.709 140.741 343.318C136.251 343.927 136.657 346.183 136.657 346.183L136.86 349.24C136.86 349.24 144.384 346.995 151.152 345.36Z" fill="#9921ED" stroke="#263238" stroke-width="1.128" stroke-linecap="round" stroke-linejoin="round"/>
<path d="M130.927 360.272L135.157 379.831C135.189 380.066 135.277 380.29 135.413 380.484C135.549 380.677 135.729 380.836 135.939 380.946C136.148 381.057 136.381 381.115 136.618 381.118C136.855 381.12 137.089 381.066 137.3 380.959L146.854 376.188L130.927 360.272Z" fill="#9921ED" stroke="#263238" stroke-width="1.128" stroke-linecap="round" stroke-linejoin="round"/>
<path d="M141.553 370.684L139.308 375.173" stroke="#263238" stroke-width="1.128" stroke-linecap="round" stroke-linejoin="round"/>
<path d="M161.349 390.491L173.678 410.885L172.043 438.465L177.965 438.262L183.887 405.369L175.235 382.324L161.349 390.491Z" fill="#263238" stroke="#263238" stroke-width="1.128" stroke-linecap="round" stroke-linejoin="round"/>
<path d="M136.849 349.24C136.849 349.24 130.927 359.449 130.927 360.272C130.927 361.096 154.006 383.34 154.006 383.34L171.569 371.699L160.537 352.523L176.419 336.934L177.637 315.897L174.784 315.694L169.674 331.012L152.754 344.345L136.849 349.24Z" fill="#9921ED" stroke="#263238" stroke-width="1.128" stroke-linecap="round" stroke-linejoin="round"/>
<path d="M174.784 315.693L174.987 311.001L180.085 307.121L180.503 308.136V311.204L180.706 313.652L177.637 315.896L174.784 315.693Z" fill="white" stroke="#263238" stroke-width="1.128" stroke-linecap="round" stroke-linejoin="round"/>
<path d="M154.006 383.34C154.006 383.34 157.886 389.871 160.774 391.912C163.661 393.954 172.584 387.626 174.84 385.776C177.096 383.926 185.669 372.917 185.669 372.917L193.632 406.847L198.539 404.806C198.539 404.806 195.663 359.686 194.242 358.422C192.82 357.159 170.757 371.484 170.757 371.484L154.006 383.34Z" fill="#263238" stroke="#263238" stroke-width="1.128" stroke-linecap="round" stroke-linejoin="round"/>
<path d="M198.528 404.817H205.465C206.695 404.817 209.752 402.978 209.977 404.411C210.203 405.843 204.055 409.712 201.596 410.942C199.235 411.858 196.768 412.476 194.253 412.78L193.633 406.858L198.528 404.817Z" fill="white" stroke="#263238" stroke-width="1.128" stroke-linecap="round" stroke-linejoin="round"/>
<path d="M177.965 438.262L181.439 444.59C181.439 444.59 185.725 446.429 185.725 447.252C185.725 448.076 178.788 447.658 178.168 447.658C177.547 447.658 170.621 440.89 170.621 440.89L172.043 438.431L177.965 438.262Z" fill="white" stroke="#263238" stroke-width="1.128" stroke-linecap="round" stroke-linejoin="round"/>
<path d="M180.085 307.121L246.739 215.73" stroke="#263238" stroke-width="1.128" stroke-miterlimit="10"/>
<path d="M13.536 524.746H548.208" stroke="#263238" stroke-width="1.128" stroke-linecap="round" stroke-linejoin="round"/>
<defs>
<linearGradient id="paint0_linear_14_335" x1="167.508" y1="39.48" x2="430.896" y2="553.848" gradientUnits="userSpaceOnUse">
<stop/>
<stop offset="1" stop-color="#951CEB" stop-opacity="0.6"/>
</linearGradient>
<linearGradient id="paint1_linear_14_335" x1="298.029" y1="218.178" x2="298.029" y2="524.746" gradientUnits="userSpaceOnUse">
<stop stop-color="white"/>
<stop offset="1" stop-color="white" stop-opacity="0"/>
</linearGradient>
<linearGradient id="paint2_linear_14_335" x1="255.492" y1="173.148" x2="283.969" y2="524.52" gradientUnits="userSpaceOnUse">
<stop stop-color="white"/>
<stop offset="1" stop-color="#999999"/>
</linearGradient>
</defs>
</svg>
