<svg width="1440" height="1764" viewBox="0 0 1440 1764" fill="none" xmlns="http://www.w3.org/2000/svg">
<g opacity="0.8" filter="url(#filter0_f_36_553)">
<path d="M719.562 478C631.892 478 547.812 512.827 485.82 574.82C423.827 636.812 389 720.892 389 808.562C389 896.233 423.827 980.313 485.82 1042.31C547.812 1104.3 631.892 1139.12 719.562 1139.12C807.233 1139.12 891.313 1104.3 953.305 1042.31C1015.3 980.313 1050.12 896.233 1050.12 808.562C1050.12 720.892 1015.3 636.812 953.305 574.82C891.313 512.827 807.233 478 719.562 478ZM903.065 827.59C898.998 832.941 893.36 836.887 886.94 838.877L835.017 856.292C819.151 861.715 804.711 870.644 792.77 882.415C780.909 894.285 771.966 908.747 766.647 924.663L748.91 976.585C746.524 982.44 742.629 987.559 737.623 991.42C732.268 995.299 725.851 997.438 719.24 997.548C712.595 997.645 706.115 995.485 700.858 991.42C695.494 987.57 691.442 982.167 689.248 975.94L672.155 924.017C666.843 908.047 657.862 893.544 645.933 881.67C634.003 869.797 619.458 860.885 603.462 855.647L551.863 838.555C545.636 836.361 540.233 832.308 536.383 826.945C532.362 821.664 530.207 815.199 530.255 808.562C530.298 801.841 532.441 795.302 536.383 789.858C540.086 784.63 545.416 780.774 551.54 778.892L603.462 761.478C619.513 756.042 634.16 747.121 646.355 735.355C658.287 723.293 667.221 708.587 672.478 692.462L689.892 641.508C691.825 635.406 695.53 630.017 700.535 626.028C705.679 621.684 712.185 619.287 718.917 619.255C725.316 619.145 731.603 620.941 736.978 624.415C742.653 627.943 746.971 633.284 749.233 639.573L766.647 692.14C772.065 708.362 781.095 723.132 793.092 735.355C805.213 747.056 819.741 755.971 835.663 761.478L887.585 779.538C893.755 781.504 899.091 785.477 902.742 790.825C906.506 796.217 908.532 802.631 908.548 809.208C908.515 815.722 906.613 822.107 903.065 827.59Z" fill="#9921ED"/>
</g>
<defs>
<filter id="filter0_f_36_553" x="-235" y="-146" width="1909.12" height="1909.12" filterUnits="userSpaceOnUse" color-interpolation-filters="sRGB">
<feFlood flood-opacity="0" result="BackgroundImageFix"/>
<feBlend mode="normal" in="SourceGraphic" in2="BackgroundImageFix" result="shape"/>
<feGaussianBlur stdDeviation="312" result="effect1_foregroundBlur_36_553"/>
</filter>
</defs>
</svg>
