<svg width="35" height="35" viewBox="0 0 35 35" fill="none" xmlns="http://www.w3.org/2000/svg">
<g clip-path="url(#clip0_36_95)">
<path d="M24.6164 16.407L25.3106 15.7053C25.3106 15.7053 26.3776 14.7888 27.5942 15.2043C29.7123 15.9274 32.1593 15.1445 33.8566 13.4452C34.3394 12.9623 34.9258 11.9936 34.9258 11.9936C34.993 11.9018 35.0166 11.7853 34.9888 11.6743L34.8574 11.1338C34.8329 11.0324 34.7677 10.9458 34.678 10.8924C34.5882 10.8401 34.4804 10.8262 34.381 10.855L30.2122 12.015C30.0573 12.0577 29.8917 12.0001 29.7977 11.8709L27.8826 9.23259C27.8239 9.15247 27.7993 9.05205 27.8132 8.95484L28.1988 6.15211C28.2191 5.9994 28.3281 5.87546 28.4766 5.83383L32.8793 4.60869C33.078 4.55312 33.1987 4.34804 33.1495 4.14617L32.9754 3.43804C32.9519 3.33762 32.8879 3.25217 32.8002 3.19878C32.8002 3.19878 32.4552 2.97019 32.2042 2.84099C29.7037 1.54961 26.555 1.9502 24.4583 4.04794C22.9095 5.59669 22.3028 7.71802 22.5869 9.73243C22.8059 11.2812 22.7033 12.1047 22.0347 12.8118C21.9738 12.8748 21.7816 13.0671 21.4846 13.3587L24.6164 16.407Z" fill="white"/>
<path d="M14.4501 20.1945C9.77713 24.7222 4.68005 29.6484 4.68005 29.6484C4.50594 29.8151 4.40661 30.0447 4.4034 30.285C4.40019 30.5243 4.49527 30.7561 4.66405 30.9259L6.84732 33.1092C7.01821 33.279 7.24893 33.373 7.48928 33.3698C7.72963 33.3677 7.95815 33.2673 8.12372 33.0943L17.6481 23.4588L14.4501 20.1945Z" fill="white"/>
<path d="M34.2776 30.8554C34.4474 30.6856 34.5414 30.4549 34.5383 30.2145C34.5361 29.9742 34.4357 29.7457 34.2627 29.579L15.5461 11.3644L12.5415 14.3701L30.8169 33.0237C30.9836 33.1978 31.2121 33.2971 31.4524 33.3003C31.6928 33.3036 31.9235 33.2085 32.0944 33.0387L34.2776 30.8554Z" fill="white"/>
<path d="M17.3767 2.22992C15.1229 1.35088 11.4785 1.22374 9.36795 3.33331C7.70592 4.99533 5.27493 7.42742 5.27493 7.42742C4.40868 8.29257 5.213 9.15137 4.57315 9.79012C3.93338 10.4299 2.91113 9.79012 2.33548 10.3658L0.22488 12.4774C-0.0752856 12.7765 -0.0752856 13.2635 0.22488 13.5637L3.16543 16.5042C3.46559 16.8044 3.95265 16.8044 4.25275 16.5042L6.36335 14.3936C6.94016 13.8179 6.29923 12.7957 6.94016 12.157C7.80211 11.294 8.74314 11.4403 9.2868 11.9829L10.3731 13.0692L11.5502 13.3789L14.5548 10.3743L14.2087 9.23354C13.2506 8.27439 13.1138 7.16458 13.7142 6.56431C14.6434 5.63503 16.1783 4.29246 17.616 3.71673C18.5323 3.3504 18.2557 2.43821 17.3767 2.22992ZM13.3007 7.07379C13.2964 7.07701 13.7012 6.57607 13.7088 6.56964L13.3007 7.07379Z" fill="white"/>
</g>
<defs>
<clipPath id="clip0_36_95">
<rect width="35" height="35" fill="white"/>
</clipPath>
</defs>
</svg>
